<svg xmlns="http://www.w3.org/2000/svg" xmlns:xlink="http://www.w3.org/1999/xlink" width="500" zoomAndPan="magnify" viewBox="0 0 375 374.999991" height="500" preserveAspectRatio="xMidYMid meet" version="1.0"><defs><g/><clipPath id="f7f2371fed"><path d="M 90.542969 131.777344 L 110.203125 131.777344 L 110.203125 235.324219 L 90.542969 235.324219 Z M 90.542969 131.777344 " clip-rule="nonzero"/></clipPath><clipPath id="7f5580430a"><path d="M 143 215 L 187 215 L 187 244 L 143 244 Z M 143 215 " clip-rule="nonzero"/></clipPath><clipPath id="9222824332"><path d="M 143.695312 222.195312 L 183.042969 215.445312 L 186.648438 236.476562 L 147.300781 243.222656 Z M 143.695312 222.195312 " clip-rule="nonzero"/></clipPath><clipPath id="04f636ef52"><path d="M 143.695312 222.195312 L 183.011719 215.453125 L 186.621094 236.480469 L 147.300781 243.222656 Z M 143.695312 222.195312 " clip-rule="nonzero"/></clipPath><clipPath id="ff5fc7059d"><path d="M 109.996094 131.777344 L 149.734375 131.777344 L 149.734375 153.417969 L 109.996094 153.417969 Z M 109.996094 131.777344 " clip-rule="nonzero"/></clipPath><clipPath id="17d8883da5"><path d="M 262.25 136.613281 L 281.910156 136.613281 L 281.910156 240.160156 L 262.25 240.160156 Z M 262.25 136.613281 " clip-rule="nonzero"/></clipPath><clipPath id="96fedb9da0"><path d="M 222.726562 218.503906 L 262.464844 218.503906 L 262.464844 240.148438 L 222.726562 240.148438 Z M 222.726562 218.503906 " clip-rule="nonzero"/></clipPath></defs><rect x="-37.5" width="450" fill="#ffffff" y="-37.499999" height="449.999989" fill-opacity="1"/><rect x="-37.5" width="450" fill="#ffffff" y="-37.499999" height="449.999989" fill-opacity="1"/><g clip-path="url(#f7f2371fed)"><path fill="#013069" d="M 90.542969 131.777344 L 110.203125 131.777344 L 110.203125 235.304688 L 90.542969 235.304688 Z M 90.542969 131.777344 " fill-opacity="1" fill-rule="nonzero"/></g><g clip-path="url(#7f5580430a)"><g clip-path="url(#9222824332)"><g clip-path="url(#04f636ef52)"><path fill="#ff7a00" d="M 143.695312 222.195312 L 183.042969 215.445312 L 186.648438 236.476562 L 147.300781 243.222656 Z M 143.695312 222.195312 " fill-opacity="1" fill-rule="nonzero"/></g></g></g><g clip-path="url(#ff5fc7059d)"><path fill="#ff7a00" d="M 109.996094 131.777344 L 149.734375 131.777344 L 149.734375 153.417969 L 109.996094 153.417969 Z M 109.996094 131.777344 " fill-opacity="1" fill-rule="nonzero"/></g><g fill="#ff7a00" fill-opacity="1"><g transform="translate(117.991124, 186.005407)"><g><path d="M 13.726562 -8.441406 L 13.726562 -12.644531 L 6.492188 -12.644531 L 6.492188 -16.816406 L 14.035156 -16.816406 L 14.035156 -21.023438 L 1.855469 -21.023438 L 1.855469 0 L 6.492188 0 L 6.492188 -8.441406 Z M 13.726562 -8.441406 "/></g></g></g><g fill="#013069" fill-opacity="1"><g transform="translate(140.221591, 186.005407)"><g><path d="M 14.128906 -21.023438 L 14.128906 -8.871094 C 14.128906 -5.964844 13.261719 -4.328125 10.078125 -4.328125 C 6.925781 -4.328125 6.027344 -5.964844 6.027344 -8.871094 L 6.027344 -21.023438 L 1.390625 -21.023438 L 1.390625 -8.191406 C 1.390625 -2.597656 4.605469 0.308594 10.078125 0.308594 C 15.550781 0.308594 18.765625 -2.597656 18.765625 -8.191406 L 18.765625 -21.023438 Z M 14.128906 -21.023438 "/></g></g></g><g fill="#013069" fill-opacity="1"><g transform="translate(167.025404, 186.005407)"><g><path d="M 10.789062 -16.816406 L 16.785156 -16.816406 L 16.785156 -21.023438 L 0.15625 -21.023438 L 0.15625 -16.816406 L 6.152344 -16.816406 L 6.152344 0 L 10.789062 0 Z M 10.789062 -16.816406 "/></g></g></g><g fill="#013069" fill-opacity="1"><g transform="translate(190.614147, 186.005407)"><g><path d="M 14.128906 -21.023438 L 14.128906 -8.871094 C 14.128906 -5.964844 13.261719 -4.328125 10.078125 -4.328125 C 6.925781 -4.328125 6.027344 -5.964844 6.027344 -8.871094 L 6.027344 -21.023438 L 1.390625 -21.023438 L 1.390625 -8.191406 C 1.390625 -2.597656 4.605469 0.308594 10.078125 0.308594 C 15.550781 0.308594 18.765625 -2.597656 18.765625 -8.191406 L 18.765625 -21.023438 Z M 14.128906 -21.023438 "/></g></g></g><g fill="#013069" fill-opacity="1"><g transform="translate(217.41796, 186.005407)"><g><path d="M 6.492188 -7.511719 L 6.523438 -7.511719 L 11.53125 0 L 17.40625 0 L 11.375 -7.730469 C 14.035156 -8.378906 16.167969 -10.726562 16.167969 -14.28125 C 16.167969 -18.269531 13.140625 -21.023438 9.738281 -21.023438 L 1.855469 -21.023438 L 1.855469 0 L 6.492188 0 Z M 8.964844 -17.375 C 10.324219 -17.375 11.746094 -16.199219 11.746094 -14.28125 C 11.746094 -12.273438 10.324219 -11.160156 8.964844 -11.160156 L 6.492188 -11.160156 L 6.492188 -17.375 Z M 8.964844 -17.375 "/></g></g></g><g fill="#013069" fill-opacity="1"><g transform="translate(241.099446, 186.005407)"><g><path d="M 14.035156 -4.203125 L 6.492188 -4.203125 L 6.492188 -8.441406 L 13.726562 -8.441406 L 13.726562 -12.644531 L 6.492188 -12.644531 L 6.492188 -16.816406 L 14.035156 -16.816406 L 14.035156 -21.023438 L 1.855469 -21.023438 L 1.855469 0 L 14.035156 0 Z M 14.035156 -4.203125 "/></g></g></g><g fill="#013069" fill-opacity="1"><g transform="translate(163.589892, 207.868023)"><g><path d="M 4.800781 -1.570312 C 3.703125 -1.570312 2.753906 -2.117188 2.695312 -3.316406 L 0.445312 -3.316406 C 0.460938 -0.859375 2.488281 0.238281 4.710938 0.238281 C 6.769531 0.238281 8.886719 -0.636719 8.886719 -3.007812 C 8.886719 -6.84375 3.066406 -5.554688 3.066406 -7.347656 C 3.066406 -8.101562 3.941406 -8.398438 4.5625 -8.398438 C 5.671875 -8.398438 6.28125 -8.058594 6.398438 -7.007812 L 8.546875 -7.007812 C 8.472656 -9.300781 6.605469 -10.21875 4.53125 -10.21875 C 2.695312 -10.21875 0.769531 -9.242188 0.769531 -7.167969 C 0.769531 -3.453125 6.589844 -4.710938 6.589844 -2.753906 C 6.589844 -1.851562 5.496094 -1.570312 4.800781 -1.570312 Z M 4.800781 -1.570312 "/></g></g></g><g fill="#ff7a00" fill-opacity="1"><g transform="translate(179.152391, 207.868023)"><g><path d="M 5.167969 -8.058594 L 8.042969 -8.058594 L 8.042969 -10.074219 L 0.0742188 -10.074219 L 0.0742188 -8.058594 L 2.949219 -8.058594 L 2.949219 0 L 5.167969 0 Z M 5.167969 -8.058594 "/></g></g></g><g fill="#ff7a00" fill-opacity="1"><g transform="translate(193.49355, 207.868023)"><g><path d="M 6.769531 -10.074219 L 6.769531 -4.25 C 6.769531 -2.859375 6.355469 -2.074219 4.828125 -2.074219 C 3.316406 -2.074219 2.886719 -2.859375 2.886719 -4.25 L 2.886719 -10.074219 L 0.667969 -10.074219 L 0.667969 -3.925781 C 0.667969 -1.246094 2.207031 0.148438 4.828125 0.148438 C 7.449219 0.148438 8.992188 -1.246094 8.992188 -3.925781 L 8.992188 -10.074219 Z M 6.769531 -10.074219 "/></g></g></g><g fill="#ff7a00" fill-opacity="1"><g transform="translate(209.37522, 207.868023)"><g><path d="M 3.082031 -2.042969 L 3.082031 -8.011719 L 3.746094 -8.011719 C 5.464844 -8.011719 6.621094 -6.710938 6.621094 -5.035156 C 6.621094 -3.363281 5.449219 -2.042969 3.746094 -2.042969 Z M 0.890625 -10.074219 L 0.890625 0 L 3.882812 0 C 6.738281 0 8.886719 -2.191406 8.886719 -5.035156 C 8.886719 -7.878906 6.726562 -10.074219 3.882812 -10.074219 Z M 0.890625 -10.074219 "/></g></g></g><g fill="#ff7a00" fill-opacity="1"><g transform="translate(225.005076, 207.868023)"><g><path d="M 3.109375 0 L 3.109375 -10.074219 L 0.890625 -10.074219 L 0.890625 0 Z M 3.109375 0 "/></g></g></g><g fill="#ff7a00" fill-opacity="1"><g transform="translate(235.22834, 207.868023)"><g><path d="M 8.664062 -5.050781 C 8.664062 -3.496094 7.257812 -2.074219 5.703125 -2.074219 C 4.148438 -2.074219 2.742188 -3.496094 2.742188 -5.050781 C 2.742188 -6.605469 4.148438 -8.011719 5.703125 -8.011719 C 7.257812 -8.011719 8.664062 -6.605469 8.664062 -5.050781 Z M 10.886719 -5.035156 C 10.886719 -7.820312 8.488281 -10.21875 5.703125 -10.21875 C 2.917969 -10.21875 0.519531 -7.820312 0.519531 -5.035156 C 0.519531 -2.25 2.917969 0.148438 5.703125 0.148438 C 8.488281 0.148438 10.886719 -2.25 10.886719 -5.035156 Z M 10.886719 -5.035156 "/></g></g></g><g fill="#ff7a00" fill-opacity="1"><g transform="translate(252.8579, 207.868023)"><g><path d="M 0.769531 -1.140625 C 0.769531 -0.429688 1.347656 0.148438 2.074219 0.148438 C 2.785156 0.148438 3.378906 -0.429688 3.378906 -1.140625 C 3.378906 -1.867188 2.785156 -2.445312 2.074219 -2.445312 C 1.347656 -2.445312 0.769531 -1.867188 0.769531 -1.140625 Z M 0.769531 -1.140625 "/></g></g></g><g clip-path="url(#17d8883da5)"><path fill="#013069" d="M 281.910156 240.160156 L 262.25 240.160156 L 262.25 136.628906 L 281.910156 136.628906 Z M 281.910156 240.160156 " fill-opacity="1" fill-rule="nonzero"/></g><g clip-path="url(#96fedb9da0)"><path fill="#ff7a00" d="M 262.464844 240.148438 L 222.726562 240.148438 L 222.726562 218.503906 L 262.464844 218.503906 Z M 262.464844 240.148438 " fill-opacity="1" fill-rule="nonzero"/></g></svg>